<svg width="30" height="30" viewBox="0 0 30 30" fill="none" xmlns="http://www.w3.org/2000/svg">
<g clip-path="url(#clip0)">
<path d="M1.36365 16.3636L25.3443 16.3636L20.854 20.854C20.3215 21.3864 20.3215 22.2499 20.854 22.7824C21.3865 23.3149 22.2499 23.3149 22.7825 22.7824L29.6007 15.9642C30.1332 15.4318 30.1332 14.5683 29.6007 14.0358L22.7825 7.21761C22.5161 6.95133 22.1672 6.81815 21.8182 6.81815C21.4692 6.81815 21.1202 6.95133 20.854 7.21761C20.3215 7.75006 20.3215 8.61352 20.854 9.14606L25.3443 13.6363L1.36365 13.6363C0.610562 13.6363 1.60399e-05 14.2469 1.59741e-05 15C1.59082e-05 15.7531 0.610562 16.3636 1.36365 16.3636Z" fill="white"/>
</g>
<defs>
<clipPath id="clip0">
<rect x="30" y="30" width="30" height="30" transform="rotate(-180 30 30)" fill="white"/>
</clipPath>
</defs>
</svg>
